<svg xmlns="http://www.w3.org/2000/svg" viewBox="0 0 1400 860" role="img" aria-labelledby="title desc">
  <title id="title">Career Alpha Workbench preview</title>
  <desc id="desc">A soft cute-tech static product preview of the Career Alpha local dashboard.</desc>
  <defs>
    <linearGradient id="bg" x1="0" y1="0" x2="1" y2="1">
      <stop offset="0" stop-color="#0a1424"/>
      <stop offset="0.52" stop-color="#08111f"/>
      <stop offset="1" stop-color="#0b1220"/>
    </linearGradient>
    <linearGradient id="accent" x1="0" y1="0" x2="1" y2="0">
      <stop offset="0" stop-color="#7cb7ff"/>
      <stop offset="0.56" stop-color="#8ce7f1"/>
      <stop offset="1" stop-color="#9ef0c8"/>
    </linearGradient>
    <filter id="shadow" x="-20%" y="-20%" width="140%" height="140%">
      <feDropShadow dx="0" dy="20" stdDeviation="24" flood-color="#010814" flood-opacity="0.3"/>
    </filter>
    <filter id="glow" x="-60%" y="-60%" width="220%" height="220%">
      <feGaussianBlur stdDeviation="24"/>
    </filter>
  </defs>
  <rect width="1400" height="860" rx="42" fill="url(#bg)"/>
  <circle cx="118" cy="70" r="92" fill="#7cb7ff" opacity="0.07" filter="url(#glow)"/>
  <circle cx="1262" cy="108" r="108" fill="#cbb7ff" opacity="0.07" filter="url(#glow)"/>
  <circle cx="706" cy="812" r="126" fill="#9ef0c8" opacity="0.045" filter="url(#glow)"/>
  <g transform="translate(46 42)" filter="url(#shadow)" font-family="Inter,Arial,sans-serif">
    <rect width="1308" height="776" rx="32" fill="#0b1628" stroke="#2a3d5c"/>
    <rect width="1308" height="70" rx="32" fill="#122039"/>
    <rect y="42" width="1308" height="28" fill="#122039"/>
    <circle cx="28" cy="35" r="7" fill="#f7a8c6"/><circle cx="52" cy="35" r="7" fill="#ffe08a"/><circle cx="76" cy="35" r="7" fill="#9ef0c8"/>
    <text x="112" y="30" fill="#f8f9fd" font-size="23" font-weight="700">Career Alpha Workbench</text>
    <text x="112" y="51" fill="#9fb0c8" font-size="12">Local-first · evidence-first · cute but competent</text>
    <rect x="1115" y="19" width="80" height="32" rx="13" fill="#172943" stroke="#3a5678"/><text x="1135" y="40" fill="#c9d8ea" font-size="12">Import</text>
    <rect x="1203" y="19" width="82" height="32" rx="13" fill="#7e74dc"/><text x="1222" y="40" fill="#ffffff" font-size="12" font-weight="700">Export</text>

    <g transform="translate(28 96)">
      <rect width="396" height="282" rx="26" fill="#101b2f" stroke="#2a3d5c"/>
      <text x="20" y="32" fill="#cbb7ff" font-size="13" font-weight="700" letter-spacing="2">✦ TREND RADAR</text>
      <text x="20" y="58" fill="#f8f9fd" font-size="23" font-weight="700">Where is demand forming?</text>
      <g transform="translate(20 82)">
        <text x="0" y="16" fill="#e4eefb" font-size="14">Agent Reliability</text><text x="300" y="16" fill="#8ce7f1" font-size="14" font-weight="700">84</text>
        <rect y="28" width="340" height="8" rx="4" fill="#14243a"/><rect y="28" width="286" height="8" rx="4" fill="url(#accent)"/>
        <text x="0" y="70" fill="#e4eefb" font-size="14">Agent Eval</text><text x="300" y="70" fill="#8ce7f1" font-size="14" font-weight="700">78</text>
        <rect y="82" width="340" height="8" rx="4" fill="#14243a"/><rect y="82" width="265" height="8" rx="4" fill="url(#accent)"/>
        <text x="0" y="124" fill="#e4eefb" font-size="14">Voice Agent Infra</text><text x="300" y="124" fill="#ffe08a" font-size="14" font-weight="700">71</text>
        <rect y="136" width="340" height="8" rx="4" fill="#14243a"/><rect y="136" width="241" height="8" rx="4" fill="#cbb7ff"/>
        <text x="0" y="178" fill="#94a8c3" font-size="14">Generic RAG</text><text x="300" y="178" fill="#94a8c3" font-size="14" font-weight="700">32</text>
        <rect y="190" width="340" height="8" rx="4" fill="#14243a"/><rect y="190" width="109" height="8" rx="4" fill="#60718a"/>
      </g>
    </g>

    <g transform="translate(442 96)">
      <rect width="394" height="282" rx="26" fill="#101b2f" stroke="#2a3d5c"/>
      <text x="20" y="32" fill="#cbb7ff" font-size="13" font-weight="700" letter-spacing="2">✦ OPPORTUNITY WEDGE</text>
      <text x="20" y="61" fill="#f8f9fd" font-size="22" font-weight="700">Agent Reliability / Eval</text>
      <text x="20" y="89" fill="#9fb0c8" font-size="14">High evidence ROI · 72h validation path</text>
      <g transform="translate(20 112)">
        <text x="0" y="15" fill="#c5d2e2" font-size="13">Demand</text><text x="308" y="15" fill="#f8f9fd" font-size="13" font-weight="700">9/10</text>
        <rect y="26" width="336" height="8" rx="4" fill="#14243a"/><rect y="26" width="302" height="8" rx="4" fill="url(#accent)"/>
        <text x="0" y="63" fill="#c5d2e2" font-size="13">Scarcity</text><text x="308" y="63" fill="#f8f9fd" font-size="13" font-weight="700">8/10</text>
        <rect y="74" width="336" height="8" rx="4" fill="#14243a"/><rect y="74" width="269" height="8" rx="4" fill="url(#accent)"/>
        <text x="0" y="111" fill="#c5d2e2" font-size="13">Proofability</text><text x="308" y="111" fill="#f8f9fd" font-size="13" font-weight="700">9/10</text>
        <rect y="122" width="336" height="8" rx="4" fill="#14243a"/><rect y="122" width="302" height="8" rx="4" fill="#cbb7ff"/>
        <text x="0" y="159" fill="#c5d2e2" font-size="13">Timing</text><text x="308" y="159" fill="#f8f9fd" font-size="13" font-weight="700">8/10</text>
        <rect y="170" width="336" height="8" rx="4" fill="#14243a"/><rect y="170" width="269" height="8" rx="4" fill="#9ef0c8"/>
      </g>
    </g>

    <g transform="translate(854 96)">
      <rect width="426" height="282" rx="26" fill="#101b2f" stroke="#2a3d5c"/>
      <text x="20" y="32" fill="#f7a8c6" font-size="13" font-weight="700" letter-spacing="2">✦ PROOF OF WORK</text>
      <text x="20" y="61" fill="#f8f9fd" font-size="22" font-weight="700">Harness Reliability Benchmark</text>
      <g transform="translate(20 90)">
        <rect width="386" height="43" rx="15" fill="#12233b"/><text x="15" y="27" fill="#9ef0c8" font-size="14">✓ baseline + fixed task set</text>
        <rect y="52" width="386" height="43" rx="15" fill="#12233b"/><text x="15" y="79" fill="#9ef0c8" font-size="14">✓ benchmark.csv + failure taxonomy</text>
        <rect y="104" width="386" height="43" rx="15" fill="#12233b"/><text x="15" y="131" fill="#9ef0c8" font-size="14">✓ architecture + reproducible README</text>
        <rect y="156" width="386" height="43" rx="15" fill="#1a2030"/><text x="15" y="183" fill="#ffe08a" font-size="14">△ external review / real user signal</text>
      </g>
    </g>

    <g transform="translate(28 398)">
      <rect width="608" height="330" rx="26" fill="#101b2f" stroke="#2a3d5c"/>
      <text x="20" y="32" fill="#cbb7ff" font-size="13" font-weight="700" letter-spacing="2">✦ CLAIM–EVIDENCE LEDGER</text>
      <text x="20" y="61" fill="#f8f9fd" font-size="22" font-weight="700">8 verified · 2 supported · 1 planned</text>
      <g transform="translate(20 88)" font-size="13">
        <text x="0" y="18" fill="#8fa2bd">CLAIM</text><text x="330" y="18" fill="#8fa2bd">STATUS</text><text x="450" y="18" fill="#8fa2bd">RISK</text>
        <line x1="0" y1="30" x2="560" y2="30" stroke="#2a3d5c"/>
        <text x="0" y="59" fill="#e4eefb">Designed fixed-task agent eval</text><rect x="330" y="43" width="90" height="26" rx="13" fill="#17392f"/><text x="345" y="60" fill="#9ef0c8" font-size="11">VERIFIED</text><text x="450" y="59" fill="#9ef0c8">LOW</text>
        <text x="0" y="105" fill="#e4eefb">Improved success rate 61 → 78%</text><rect x="330" y="89" width="90" height="26" rx="13" fill="#3b3420"/><text x="343" y="106" fill="#ffe08a" font-size="11">SUPPORTED</text><text x="450" y="105" fill="#ffe08a">MEDIUM</text>
        <text x="0" y="151" fill="#e4eefb">Led production reliability system</text><rect x="330" y="135" width="90" height="26" rx="13" fill="#33273c"/><text x="348" y="152" fill="#cbb7ff" font-size="11">PLANNED</text><text x="450" y="151" fill="#f7a8c6">HIGH</text>
      </g>
      <rect x="20" y="260" width="568" height="48" rx="16" fill="#14233b" stroke="#334d6c"/>
      <text x="36" y="288" fill="#a6b5cb" font-size="13">Rule: downstream skills may rewrite wording, never silently upgrade confidence.</text>
    </g>

    <g transform="translate(654 398)">
      <rect width="626" height="330" rx="26" fill="#101b2f" stroke="#2a3d5c"/>
      <text x="20" y="32" fill="#f7a8c6" font-size="13" font-weight="700" letter-spacing="2">✦ MARKET FEEDBACK</text>
      <text x="20" y="61" fill="#f8f9fd" font-size="22" font-weight="700">Pipeline → career hypothesis</text>
      <g transform="translate(20 88)">
        <rect width="586" height="66" rx="16" fill="#12233b"/>
        <text x="16" y="25" fill="#e4eefb" font-size="14">Agent Infra Startup · Agent Engineer</text>
        <text x="16" y="48" fill="#9fb0c8" font-size="12">INTERVIEWING · asked about eval design + retries</text>
        <rect y="76" width="586" height="66" rx="16" fill="#12233b"/>
        <text x="16" y="101" fill="#e4eefb" font-size="14">Developer Tools Co. · AI Engineer</text>
        <text x="16" y="124" fill="#9fb0c8" font-size="12">REPLIED · benchmark repo opened by engineer</text>
        <rect y="152" width="586" height="66" rx="16" fill="#1a2030"/>
        <text x="16" y="177" fill="#e4eefb" font-size="14">Generic AI App Role</text>
        <text x="16" y="200" fill="#9fb0c8" font-size="12">REJECTED · position too broad / weak differentiation</text>
      </g>
      <rect x="20" y="270" width="172" height="38" rx="14" fill="#17392f"/><text x="63" y="294" fill="#9ef0c8" font-size="13" font-weight="700">KEEP WEDGE</text>
      <rect x="202" y="270" width="178" height="38" rx="14" fill="#182b46"/><text x="235" y="294" fill="#cfe4ff" font-size="13" font-weight="700">ADD PROOF</text>
      <rect x="390" y="270" width="216" height="38" rx="14" fill="#33273c"/><text x="423" y="294" fill="#d9caff" font-size="13" font-weight="700">REFINE POSITION</text>
    </g>
  </g>
</svg>